# xmcd CD database file
#
# Track frame offsets:
#	150
#	9900
#	32035
#	52457
#	66202
#	84859
#	109058
#	124043
#	147318
#	164471
#
# Disc length: 2435 seconds
#
# Revision: 0
# Processed by: cddbd v1.5.1PL0 Copyright (c) Steve Scherf et al.
# Submitted via: CDex 1.51
#
DISCID=8409810a
DTITLE=SunnyVale - Crystal Memories
DYEAR=2004
DGENRE=Game
TTITLE0=Prelude
TTITLE1=Eyes On Me
TTITLE2=飛空挺ヒルダガルデ
TTITLE3=My First Party
TTITLE4=きらめく街のどこかで
TTITLE5=Main Theme
TTITLE6=Overdrive
TTITLE7=愛のテーマ -Color Of Love-
TTITLE8=Tell Me Your Fantasy
TTITLE9=Celebration
EXTD=YEAR: 2004
EXTT0=
EXTT1=
EXTT2=
EXTT3=
EXTT4=
EXTT5=
EXTT6=
EXTT7=
EXTT8=
EXTT9=
PLAYORDER=
